<svg xmlns="http://www.w3.org/2000/svg" viewBox="0 0 160 190" role="img" aria-label="Delhi Public School Ghaziabad logo">
  <defs>
    <linearGradient id="gold" x1="20" x2="140" y1="10" y2="180" gradientUnits="userSpaceOnUse">
      <stop stop-color="#ffe08a"/>
      <stop offset="0.48" stop-color="#f4b64b"/>
      <stop offset="1" stop-color="#9f6618"/>
    </linearGradient>
    <linearGradient id="green" x1="80" x2="80" y1="24" y2="162" gradientUnits="userSpaceOnUse">
      <stop stop-color="#176333"/>
      <stop offset="1" stop-color="#07391f"/>
    </linearGradient>
    <filter id="glow" x="-20%" y="-20%" width="140%" height="140%">
      <feGaussianBlur stdDeviation="2" result="blur"/>
      <feMerge>
        <feMergeNode in="blur"/>
        <feMergeNode in="SourceGraphic"/>
      </feMerge>
    </filter>
  </defs>
  <path d="M80 10 132 28c-2 43-5 92-20 121-11 21-29 32-32 34-3-2-21-13-32-34C33 120 30 71 28 28Z" fill="url(#gold)"/>
  <path d="M80 20 123 35c-2 38-6 82-19 108-8 16-20 26-24 29-4-3-16-13-24-29C43 117 39 73 37 35Z" fill="url(#green)" stroke="#f8d36f" stroke-width="2"/>
  <path d="M80 38c8 11 8 21 0 31-8-10-8-20 0-31Z" fill="#ffb01f" stroke="#f8d36f" stroke-width="2"/>
  <path d="M75 70h10v55H75z" fill="url(#gold)"/>
  <path d="M67 90c8 5 18 5 26 0M66 104c9 5 19 5 28 0" stroke="#f8d36f" stroke-width="2" fill="none"/>
  <path d="M52 55c16 8 40 8 56 0M48 132c20 13 44 13 64 0" stroke="#f8d36f" stroke-width="3" fill="none" stroke-linecap="round"/>
  <text x="80" y="150" text-anchor="middle" font-family="Arial, sans-serif" font-size="16" font-weight="700" fill="#f8d36f">DPS</text>
  <text x="80" y="166" text-anchor="middle" font-family="Arial, sans-serif" font-size="9" font-weight="700" fill="#f8d36f">GHAZIABAD</text>
  <circle cx="80" cy="96" r="56" fill="none" stroke="#f8d36f" stroke-width="2" opacity=".45" filter="url(#glow)"/>
</svg>
